<?xml version="1.0" encoding="utf-8"?>
<!-- Generator: Adobe Illustrator 17.1.0, SVG Export Plug-In . SVG Version: 6.00 Build 0)  -->
<!DOCTYPE svg PUBLIC "-//W3C//DTD SVG 1.1//EN" "http://www.w3.org/Graphics/SVG/1.1/DTD/svg11.dtd">
<svg version="1.1" id="Layer_1" xmlns="http://www.w3.org/2000/svg" xmlns:xlink="http://www.w3.org/1999/xlink" x="0px" y="0px"
	 viewBox="0 0 27 27" enable-background="new 0 0 27 27" xml:space="preserve">
<path fill="#FFFFFF" d="M18,13l-5.6-4.1c-0.2-0.1-0.5-0.2-0.7-0.1c-0.2,0.1-0.4,0.3-0.4,0.6v8.2c0,0.3,0.1,0.5,0.4,0.6
	c0.1,0,0.2,0.1,0.3,0.1c0.1,0,0.3,0,0.4-0.1l5.6-4.1c0.2-0.1,0.3-0.3,0.3-0.5C18.2,13.3,18.1,13.1,18,13z"/>
<path fill="#FFFFFF" d="M13.5,0C6,0,0,6,0,13.5C0,21,6,27,13.5,27C21,27,27,21,27,13.5C27,6,21,0,13.5,0z M13.5,24.7
	c-6.2,0-11.2-5-11.2-11.2c0-6.2,5-11.2,11.2-11.2c6.2,0,11.2,5,11.2,11.2C24.7,19.7,19.7,24.7,13.5,24.7z"/>
</svg>
