<?xml version="1.0" encoding="utf-8"?>
<!-- Generator: Adobe Illustrator 17.1.0, SVG Export Plug-In . SVG Version: 6.00 Build 0)  -->
<!DOCTYPE svg PUBLIC "-//W3C//DTD SVG 1.1//EN" "http://www.w3.org/Graphics/SVG/1.1/DTD/svg11.dtd">
<svg version="1.1" id="Layer_1" xmlns="http://www.w3.org/2000/svg" xmlns:xlink="http://www.w3.org/1999/xlink" x="0px" y="0px"
	 viewBox="0 0 612 792" enable-background="new 0 0 612 792" xml:space="preserve">
<g>
	<path fill="none" d="M304.8,391.4c-0.2-0.1-0.5-0.2-0.7-0.1c-0.2,0.1-0.4,0.3-0.4,0.6v8.2c0,0.3,0.1,0.5,0.4,0.6
		c0.1,0,0.2,0.1,0.3,0.1c0.1,0,0.3,0,0.4-0.1l5.6-4.1c0.2-0.1,0.3-0.3,0.3-0.5c0-0.2-0.1-0.4-0.3-0.5L304.8,391.4z M306,382.5
		c-7.5,0-13.5,6-13.5,13.5c0,7.5,6,13.5,13.5,13.5c7.5,0,13.5-6,13.5-13.5C319.5,388.5,313.5,382.5,306,382.5z M306,407.2
		c-6.2,0-11.2-5-11.2-11.2c0-6.2,5-11.2,11.2-11.2c6.2,0,11.2,5,11.2,11.2C317.2,402.2,312.2,407.2,306,407.2z"/>
</g>
</svg>
