<?xml version="1.0" encoding="utf-8"?>
<!-- Generator: Adobe Illustrator 17.1.0, SVG Export Plug-In . SVG Version: 6.00 Build 0)  -->
<!DOCTYPE svg PUBLIC "-//W3C//DTD SVG 1.1//EN" "http://www.w3.org/Graphics/SVG/1.1/DTD/svg11.dtd">
<svg version="1.1" id="Layer_1" xmlns="http://www.w3.org/2000/svg" xmlns:xlink="http://www.w3.org/1999/xlink" x="0px" y="0px"
	 viewBox="0 0 50 50" enable-background="new 0 0 50 50" xml:space="preserve">
<polygon fill="#1864AF" points="49,28 49,5 12.5,5.1 12.5,12.6 15.2,12.6 15.2,7.8 46.5,7.8 46.5,25.2 22.2,25.2 22,28 28,28 28,30 
	22.1,30.2 22.1,31.4 41.6,31.4 41.6,30.1 33,30.1 33,28 "/>
<g id="c61_iphone">
	<path fill="#1864AF" d="M19.4,14h-9c-0.9,0-1.6,0.7-1.6,1.6v18.2c0,0.9,0.7,1.6,1.6,1.6h9c0.9,0,1.6-0.7,1.6-1.6V15.6
		C21,14.7,20.3,14,19.4,14z M12.7,14.9h4.4c0.1,0,0.2,0.2,0.2,0.4c0,0.2-0.1,0.4-0.2,0.4h-4.4c-0.1,0-0.2-0.2-0.2-0.4
		C12.5,15.1,12.6,14.9,12.7,14.9z M15,33.8c-0.5,0-1-0.4-1-1c0-0.5,0.4-1,1-1s1,0.4,1,1C16,33.4,15.5,33.8,15,33.8z M19.8,30.4h-9.8
		V16.6h9.8V30.4z"/>
</g>
</svg>
