<?xml version="1.0" encoding="utf-8"?>
<!-- Generator: Adobe Illustrator 17.1.0, SVG Export Plug-In . SVG Version: 6.00 Build 0)  -->
<!DOCTYPE svg PUBLIC "-//W3C//DTD SVG 1.1//EN" "http://www.w3.org/Graphics/SVG/1.1/DTD/svg11.dtd">
<svg version="1.1" id="Layer_1" xmlns="http://www.w3.org/2000/svg" xmlns:xlink="http://www.w3.org/1999/xlink" x="0px" y="0px"
	 viewBox="0 0 44.9 44" enable-background="new 0 0 44.9 44" xml:space="preserve">
<polygon fill="#1864AF" points="7.9,22 2.8,22 2.8,2.8 22,2.8 22,6.7 24.8,6.7 24.8,0 0,0 0,24.8 7.9,24.8 "/>
<g>
	<path fill="#1864AF" d="M15.2,30.3h-0.6v0h0c-1.2,0-2.3-1.3-2.3-2.7V15.3c0-2.3,1.9-4.2,4.2-4.2h11.6c1.8,0,3.3,1.1,3.3,2.5v0.7
		c0,0,1.9,0,2.8,0.4v-1.1c0-2.9-2.8-5.3-6.2-5.3h-2.6h-0.8h-4.3v0h-4c-3.9,0-7,3.2-7,7v6.2h0l0,0V22h0l0,2.8h0v2.7
		c0,3.1,2.3,5.5,5.1,5.5h0.9C15.1,32.1,15.2,30.3,15.2,30.3z"/>
	<path fill="#1864AF" d="M34.3,16.3c0,0-1.3-0.3-3.3-0.3c-7.8,0-14.3,6.2-14.3,13.9c0,1.5,0.4,3.2,0.4,3.2h0
		c1.4,6.2,7,10.9,13.7,10.9c7.8,0,14.1-6.3,14.1-14.1C44.9,23.4,40.4,17.9,34.3,16.3z M30.8,41.2c-6.2,0-11.3-5.1-11.3-11.3
		c0-6.2,5.1-11.3,11.3-11.3c6.2,0,11.3,5.1,11.3,11.3C42.1,36.1,37,41.2,30.8,41.2z"/>
</g>
</svg>
