<?xml version="1.0" encoding="utf-8"?>
<!-- Generator: Adobe Illustrator 17.1.0, SVG Export Plug-In . SVG Version: 6.00 Build 0)  -->
<!DOCTYPE svg PUBLIC "-//W3C//DTD SVG 1.1//EN" "http://www.w3.org/Graphics/SVG/1.1/DTD/svg11.dtd">
<svg version="1.1" id="Layer_1" xmlns="http://www.w3.org/2000/svg" xmlns:xlink="http://www.w3.org/1999/xlink" x="0px" y="0px"
	 viewBox="0 0 36.6 35.9" enable-background="new 0 0 36.6 35.9" xml:space="preserve">
<path fill="#AAAAAA" d="M36.6,5.1v10.6c0,0.7-0.5,1.2-1.2,1.2H17.6v2.4h0.9c0.7,0,1.2,0.5,1.2,1.2v14.2c0,0.7-0.5,1.2-1.2,1.2h-4.2
	c-0.7,0-1.2-0.5-1.2-1.2V20.5c0-0.7,0.5-1.2,1.2-1.2h0.9v-3.6c0-0.7,0.5-1.2,1.2-1.2h17.8V6.3h-3v3c0,1.7-1.4,3-3,3H3
	c-1.7,0-3-1.4-3-3V3c0-1.7,1.4-3,3-3h25.2c1.7,0,3,1.4,3,3v0.9h4.2C36.1,3.9,36.6,4.5,36.6,5.1z"/>
</svg>
