<?xml version="1.0" encoding="utf-8"?>
<!-- Generator: Adobe Illustrator 17.1.0, SVG Export Plug-In . SVG Version: 6.00 Build 0)  -->
<!DOCTYPE svg PUBLIC "-//W3C//DTD SVG 1.1//EN" "http://www.w3.org/Graphics/SVG/1.1/DTD/svg11.dtd">
<svg version="1.1" id="Layer_1" xmlns="http://www.w3.org/2000/svg" xmlns:xlink="http://www.w3.org/1999/xlink" x="0px" y="0px"
	 viewBox="0 0 100 100" enable-background="new 0 0 100 100" xml:space="preserve">
<g id="Your_Icon">
	<path fill="#AAAAAA" d="M96,66.7c-2-2-4.4-3.2-6.9-3.7V44.9v0c0-0.5-0.2-1.1-0.5-1.4l0,0l0,0l-4.9-2.8L63.4,29.1v0L63.4,29
		c-0.2-0.2-0.5-0.4-0.8-0.5c1.9-4.9,0.9-10.6-3.1-14.6c-5.3-5.3-14-5.3-19.3,0c-4,4-5,9.8-3,14.7c-0.2,0.1-0.3,0.2-0.4,0.3l-0.1,0.1
		l0,0L16.4,40.7l-4.9,2.8l0,0l0,0c-0.3,0.3-0.5,0.7-0.5,1.1c0,0.2,0,0.4,0,0.6V63c-2.6,0.5-5,1.8-7,3.7c-5.3,5.3-5.3,14,0,19.3
		c5.3,5.3,14,5.3,19.3,0c5.3-5.3,5.3-14,0-19.3c-2-2-4.4-3.2-6.9-3.7V46.7L40,33.2c0,0,0.1,0.1,0.1,0.1c2,2,4.4,3.2,7,3.7l0,26
		c-2.6,0.5-5,1.8-7,3.7c-5.3,5.3-5.3,14,0,19.3c5.3,5.3,14,5.3,19.3,0c5.3-5.3,5.3-14,0-19.3c-2-2-4.4-3.2-6.9-3.7V37
		c2.5-0.5,5-1.8,6.9-3.7c0.1-0.1,0.2-0.2,0.3-0.3l23.9,13.7V63c-2.6,0.5-5,1.8-7,3.7c-5.3,5.3-5.3,14,0,19.3c5.3,5.3,14,5.3,19.3,0
		C101.3,80.7,101.3,72.1,96,66.7z"/>
</g>
</svg>
