<?xml version="1.0" encoding="utf-8"?>
<!-- Generator: Adobe Illustrator 17.1.0, SVG Export Plug-In . SVG Version: 6.00 Build 0)  -->
<!DOCTYPE svg PUBLIC "-//W3C//DTD SVG 1.1//EN" "http://www.w3.org/Graphics/SVG/1.1/DTD/svg11.dtd">
<svg version="1.1" id="Layer_1" xmlns="http://www.w3.org/2000/svg" xmlns:xlink="http://www.w3.org/1999/xlink" x="0px" y="0px"
	 viewBox="0 0 24 24" enable-background="new 0 0 24 24" xml:space="preserve">
<g id="Layer_1_1_">
	<g>
		<path fill="#AAAAAA" d="M19.4,8.9c0.1,0,0.2-0.1,0.3-0.2l0.5-0.5c0.4-0.4,0.4-1,0-1.4s-1-0.4-1.4,0l-0.5,0.5
			c-0.1,0.1-0.1,0.1-0.1,0.2C16.8,6.2,15,5.3,13,5.1c0,0,0,0,0-0.1V4h1c0.6,0,1-0.5,1-1s-0.4-1-1-1h-4C9.4,2,9,2.5,9,3s0.4,1,1,1h1
			v1c0,0,0,0,0,0.1C6.5,5.5,3,9.4,3,14c0,5,4,9,9,9s9-4,9-9C21,12.1,20.4,10.4,19.4,8.9z M12,21c-3.9,0-7-3.1-7-7s3.1-7,7-7
			s7,3.1,7,7S15.9,21,12,21z"/>
		<path fill="#AAAAAA" d="M13,13v-2c0-0.6-0.4-1-1-1s-1,0.4-1,1v3c0,0.6,0.4,1,1,1h3c0.6,0,1-0.4,1-1s-0.4-1-1-1H13z"/>
		<path fill="#AAAAAA" d="M12,8c-3.3,0-6,2.7-6,6s2.7,6,6,6s6-2.7,6-6S15.3,8,12,8z M12,19c-2.8,0-5-2.2-5-5s2.2-5,5-5s5,2.2,5,5
			S14.8,19,12,19z"/>
	</g>
</g>
<g id="nyt_x5F_exporter_x5F_info" display="none">
</g>
</svg>
