<?xml version="1.0" encoding="utf-8"?>
<!-- Generator: Adobe Illustrator 17.1.0, SVG Export Plug-In . SVG Version: 6.00 Build 0)  -->
<!DOCTYPE svg PUBLIC "-//W3C//DTD SVG 1.1//EN" "http://www.w3.org/Graphics/SVG/1.1/DTD/svg11.dtd">
<svg version="1.1" id="Layer_1" xmlns="http://www.w3.org/2000/svg" xmlns:xlink="http://www.w3.org/1999/xlink" x="0px" y="0px"
	 viewBox="0 0 126 126" enable-background="new 0 0 126 126" xml:space="preserve">
<g>
	<polygon fill="#AAAAAA" points="79.7,26.4 81.5,31.1 88.8,28.3 73,48.9 59.5,33.2 28,65 31.5,68.5 59.3,40.6 73.2,56.9 93,31 
		93,40.4 98,40.4 98,19.4 	"/>
	<path fill="#AAAAAA" d="M38.8,76.9h-6.5c-1.1,0-2,0.9-2,2v25.7c0,1.1,0.9,2,2,2h6.5c1.1,0,2-0.9,2-2V78.9
		C40.8,77.8,39.9,76.9,38.8,76.9z"/>
	<path fill="#AAAAAA" d="M60.2,56.9h-6.5c-1.1,0-2,0.9-2,2v45.7c0,1.1,0.9,2,2,2h6.5c1.1,0,2-0.9,2-2V58.9
		C62.2,57.8,61.3,56.9,60.2,56.9z"/>
	<path fill="#AAAAAA" d="M81.2,67.2h-6.5c-1.1,0-2,0.9-2,2v35.3c0,1.1,0.9,2,2,2h6.5c1.1,0,2-0.9,2-2V69.2
		C83.2,68.1,82.3,67.2,81.2,67.2z"/>
</g>
</svg>
